<?xml version="1.0" standalone="no"?><!DOCTYPE svg PUBLIC "-//W3C//DTD SVG 1.1//EN" "http://www.w3.org/Graphics/SVG/1.1/DTD/svg11.dtd"><svg t="1699866459665" class="icon" viewBox="0 0 1024 1024" version="1.1" xmlns="http://www.w3.org/2000/svg" p-id="18037" xmlns:xlink="http://www.w3.org/1999/xlink" width="200" height="200"><path d="M512 85.333333a426.666667 426.666667 0 1 0 426.666667 426.666667A426.666667 426.666667 0 0 0 512 85.333333z m0 128a128 128 0 1 1-128 128 128 128 0 0 1 128-128z m239.786667 476.16a298.666667 298.666667 0 0 1-479.573334 0 42.666667 42.666667 0 0 1-2.986666-42.666666l8.96-18.773334A128 128 0 0 1 393.813333 554.666667h236.373334a128 128 0 0 1 114.773333 71.68l9.813333 20.053333a42.666667 42.666667 0 0 1-2.986666 43.093333z" p-id="18038"></path></svg>