<svg width="212" height="212" viewBox="0 0 212 212" fill="none" xmlns="http://www.w3.org/2000/svg">
<circle cx="105" cy="106" r="90" fill="white" fill-opacity="0.3"/>
<circle cx="105" cy="106" r="74" fill="#89BFF2" stroke="#332D57" stroke-width="8"/>
<mask id="mask0_305_9156" style="mask-type:alpha" maskUnits="userSpaceOnUse" x="35" y="36" width="140" height="140">
<circle cx="105" cy="106" r="70" fill="#D2E1FB"/>
</mask>
<g mask="url(#mask0_305_9156)">
<circle cx="89" cy="106" r="70" fill="#D2E1FB"/>
</g>
<mask id="mask1_305_9156" style="mask-type:alpha" maskUnits="userSpaceOnUse" x="35" y="36" width="140" height="140">
<circle cx="105" cy="106" r="70" fill="#89BFF2"/>
</mask>
<g mask="url(#mask1_305_9156)">
<circle cx="125" cy="43" r="9" transform="rotate(-90 125 43)" fill="#C5E0EF" stroke="#332D57" stroke-width="6"/>
<circle cx="112" cy="173" r="10" transform="rotate(-90 112 173)" stroke="#332D57" stroke-width="6"/>
</g>
<path fill-rule="evenodd" clip-rule="evenodd" d="M81.368 55.0475C81.368 52.0876 78.3538 50.1005 75.7545 51.5164C62.5301 58.7195 52.219 70.597 47.0404 84.9296C46.1286 87.4531 48.084 90.0003 50.7672 90.0003C52.5574 90.0003 54.1242 88.8283 54.7492 87.1507C59.2525 75.0625 67.9619 65.0224 79.098 58.8098C80.4708 58.044 81.368 56.6195 81.368 55.0475Z" fill="white"/>
<circle cx="46.3672" cy="99" r="4" fill="white"/>
<path fill-rule="evenodd" clip-rule="evenodd" d="M35.4269 91.154C36.2846 90.624 36.8967 89.7823 37.1443 88.8049C37.9916 85.4609 34.4585 82.3606 31.5186 84.1656C12.095 96.0908 1.06292 110.423 3.42153 123.799C7.80463 148.657 56.7719 160.801 112.793 150.923C168.814 141.045 210.675 112.886 206.292 88.0279C205.348 82.6769 202.339 77.9151 197.638 73.8352C195.906 72.3326 193.292 72.877 192.068 74.816L190.335 77.5647C190.169 77.8266 190.238 78.1716 190.487 78.3553C195.42 81.9885 197.77 85.7705 198.413 89.417C199.056 93.0636 198.141 97.4214 194.749 102.523C191.324 107.671 185.635 113.137 177.729 118.455C161.935 129.079 138.577 138.253 111.404 143.044C84.2302 147.836 59.1432 147.204 40.6686 142.622C31.4204 140.329 24.2047 137.139 19.2262 133.472C14.2932 129.839 11.943 126.057 11.3 122.41C10.657 118.764 11.572 114.406 14.9648 109.305C18.389 104.156 24.0785 98.6907 31.9846 93.3725C33.0951 92.6255 34.2429 91.8857 35.4269 91.154ZM184.997 71.0317C183.912 72.7518 181.72 73.3835 179.832 72.6277C176.623 71.3433 173.022 70.1913 169.045 69.2051C167.846 68.9076 166.618 68.6269 165.365 68.3632C164.379 68.1558 163.514 67.5672 162.949 66.7334C161.013 63.8759 163.287 59.762 166.667 60.4626C172.785 61.7307 178.367 63.3858 183.293 65.398C185.514 66.3054 186.277 69.0025 184.997 71.0317Z" fill="#332D57"/>
<mask id="mask2_305_9156" style="mask-type:alpha" maskUnits="userSpaceOnUse" x="27" y="28" width="156" height="156">
<circle cx="105" cy="106" r="74" fill="#89BFF2" stroke="#332D57" stroke-width="8"/>
</mask>
<g mask="url(#mask2_305_9156)">
<path fill-rule="evenodd" clip-rule="evenodd" d="M115.495 118.564C114.729 121.424 117.205 124.102 120.103 123.496C162.157 114.699 195.01 95.6631 204.096 76.1885C205.494 73.1922 202.609 70.4403 199.415 71.2961C198.056 71.6603 196.964 72.6481 196.308 73.8928C195.861 74.7405 195.343 75.6108 194.749 76.504C191.325 81.6523 185.635 87.1179 177.729 92.4361C163.349 102.109 142.699 110.58 118.607 115.636C117.102 115.951 115.893 117.079 115.495 118.564ZM27.1006 119.277C27.3327 118.411 26.5245 117.622 25.658 117.854C24.5937 118.139 24.4429 119.577 25.4567 120.009C25.4858 120.021 25.5149 120.033 25.544 120.046C26.188 120.319 26.9195 119.953 27.1006 119.277Z" fill="#332D57"/>
<path fill-rule="evenodd" clip-rule="evenodd" d="M137.756 153.932C136.928 157.022 139.829 159.795 142.847 158.735C171.306 148.735 192.337 134.024 199.323 119.053C200.721 116.057 197.837 113.303 194.643 114.158C193.284 114.522 192.192 115.51 191.536 116.755C191.089 117.603 190.571 118.473 189.977 119.366C186.553 124.515 180.863 129.98 172.957 135.298C164.205 141.186 153.13 146.628 140.369 151.126C139.09 151.577 138.107 152.622 137.756 153.932ZM46.3096 166.035C46.9284 163.725 45.3874 161.4 43.0338 160.979C40.5597 160.537 38.1778 160.031 35.8967 159.466C34.5802 159.139 33.3048 158.795 32.0711 158.433C31.2502 158.192 30.3789 158.173 29.5525 158.394C25.4927 159.482 25.1232 164.698 29.1477 165.91C33.0989 167.1 37.3564 168.1 41.8759 168.899C43.872 169.252 45.7849 167.993 46.3096 166.035Z" fill="#332D57"/>
</g>
<circle cx="163" cy="27" r="10" fill="#F7931B" stroke="#332D57" stroke-width="8"/>
<circle cx="183" cy="160" r="6" fill="#332D57"/>
<circle cx="106" cy="123" r="4" transform="rotate(-90 106 123)" fill="#332D57"/>
<circle cx="58" cy="129" r="7" transform="rotate(-90 58 129)" fill="#D2E1FB" stroke="#332D57" stroke-width="6"/>
<circle cx="84" cy="86" r="13" fill="#86B7E5"/>
<path fill-rule="evenodd" clip-rule="evenodd" d="M95 86C95 92.0751 90.0751 97 84 97C77.9249 97 73 92.0751 73 86C73 79.9249 77.9249 75 84 75C86.4254 75 88.6675 75.785 90.4861 77.1148C91.4597 77.8267 92.6796 78.2087 93.8447 77.8965C96.014 77.3153 96.9575 74.7695 95.2776 73.279C92.2767 70.6167 88.3271 69 84 69C74.6112 69 67 76.6112 67 86C67 95.3888 74.6112 103 84 103C93.3888 103 101 95.3888 101 86C101 84.4519 99.4668 83.4743 97.9715 83.875L96.1895 84.3525C95.4625 84.5473 95 85.2473 95 86Z" fill="#332D57"/>
</svg>
