<svg width="212" height="212" viewBox="0 0 212 212" fill="none" xmlns="http://www.w3.org/2000/svg">
<circle cx="107.926" cy="106" r="90" fill="#FFC240" fill-opacity="0.3"/>
<circle cx="107.926" cy="106" r="74" fill="#F7931B" stroke="#332D57" stroke-width="8"/>
<mask id="mask0_305_9053" style="mask-type:alpha" maskUnits="userSpaceOnUse" x="37" y="36" width="141" height="140">
<circle cx="107.926" cy="106" r="70" fill="#FFC240"/>
</mask>
<g mask="url(#mask0_305_9053)">
<circle cx="91.9258" cy="106" r="70" fill="#FFC240"/>
</g>
<path fill-rule="evenodd" clip-rule="evenodd" d="M83.9265 55.0475C83.9265 52.0876 80.9124 50.1005 78.3131 51.5164C65.0887 58.7195 54.7776 70.597 49.599 84.9296C48.6872 87.4531 50.6426 90.0003 53.3258 90.0003C55.116 90.0003 56.6828 88.8283 57.3078 87.1507C61.8111 75.0625 70.5205 65.0224 81.6566 58.8098C83.0294 58.044 83.9265 56.6195 83.9265 55.0475Z" fill="white"/>
<circle cx="48.9258" cy="99" r="4" fill="white"/>
<path fill-rule="evenodd" clip-rule="evenodd" d="M177.923 105.376C177.922 105.179 178.012 104.993 178.168 104.872C178.752 104.42 179.326 103.967 179.889 103.513C187.301 97.5255 192.493 91.5848 195.455 86.1576C198.39 80.7801 198.922 76.3591 197.964 72.7825C197.005 69.2059 194.335 65.6431 189.104 62.4537C183.825 59.2348 176.358 56.6858 166.945 55.2071C163.506 54.6668 159.858 54.2774 156.029 54.0455C155.208 53.9958 154.423 53.6668 153.802 53.128C151.085 50.7701 152.593 45.8315 156.184 46.0406C182.635 47.5804 201.809 56.2239 205.691 70.712C212.224 95.0932 172.977 126.793 118.03 141.516C75.0723 153.027 35.2367 150.753 16.7759 137.562C14.5359 135.962 14.9623 132.711 17.3464 131.335C18.8726 130.454 20.7734 130.64 22.2414 131.615C22.5814 131.841 22.9335 132.065 23.2981 132.287C28.5772 135.506 36.0435 138.055 45.4564 139.534C64.26 142.488 89.3066 140.931 115.959 133.789C140.617 127.182 161.694 117.123 176.436 106.184C176.598 106.064 176.792 106 176.993 106H177.302C177.647 106 177.927 105.72 177.923 105.376ZM13.5603 124.283C14.3575 123.823 14.6762 122.847 14.4379 121.958C13.4796 118.382 14.0113 113.961 16.9466 108.583C19.9091 103.156 25.1006 97.2152 32.513 91.2281C34.864 89.3292 37.4081 87.4502 40.1314 85.6038C40.8091 85.1444 41.3139 84.4717 41.5748 83.6956C42.7233 80.2791 38.9115 76.7771 35.9231 78.7922C14.6235 93.155 2.90667 109.833 6.71052 124.029C7.22661 125.955 9.46493 126.648 11.1918 125.651L13.5603 124.283Z" fill="#332D57"/>
<path fill-rule="evenodd" clip-rule="evenodd" d="M171.246 139C170.128 139.229 169.163 139.933 168.594 140.922C166.935 143.802 169.194 147.572 172.452 146.918C186.872 144.021 197.7 138.411 202.931 130.404C204.561 127.91 202.465 125 199.486 125C197.858 125 196.397 125.924 195.387 127.2C193.927 129.046 191.874 130.84 189.104 132.529C184.656 135.241 178.655 137.478 171.246 139ZM202.642 120C200.333 120 198.534 117.994 198.085 115.73C197.669 113.629 196.823 111.331 195.455 108.825C192.493 103.398 187.301 97.4576 179.889 91.4706C165.081 79.5106 142.612 68.3356 115.959 61.1941C89.3066 54.0525 64.26 52.4956 45.4564 55.4495C36.0435 56.9282 28.5772 59.4773 23.2981 62.6961C18.0672 65.8855 15.3963 69.4483 14.4379 73.0249C13.4796 76.6015 14.0113 81.0225 16.9466 86.4C19.9091 91.8272 25.1006 97.7679 32.513 103.755C33.7652 104.766 35.0722 105.772 36.4319 106.77C37.3827 107.468 37.9631 108.562 38.0262 109.74C38.2006 112.998 34.5827 115.326 31.9475 113.402C13.1854 99.7006 3.15046 84.2407 6.71052 70.9544C13.2435 46.5732 63.0828 38.7437 118.03 53.4667C167.139 66.6255 203.708 93.346 206.259 116.282C206.491 118.36 204.733 120 202.642 120Z" fill="#332D57"/>
<circle cx="90.9258" cy="140.806" r="14" fill="#A8E5FE"/>
<path fill-rule="evenodd" clip-rule="evenodd" d="M80.9258 130.053C80.9258 126.279 76.9111 124.073 74.5473 127.015C71.6559 130.613 69.9258 135.184 69.9258 140.159C69.9258 151.757 79.3278 161.159 90.9258 161.159C102.524 161.159 111.926 151.757 111.926 140.159C111.926 130.803 105.807 122.876 97.3527 120.161C95.0409 119.418 92.9258 121.352 92.9258 123.78C92.9258 125.812 94.4502 127.478 96.3003 128.319C100.798 130.364 103.926 134.896 103.926 140.159C103.926 147.339 98.1055 153.159 90.9258 153.159C83.7461 153.159 77.9258 147.339 77.9258 140.159C77.9258 137.646 78.639 135.299 79.8741 133.31C80.4875 132.323 80.9258 131.215 80.9258 130.053Z" fill="#332D57"/>
<circle cx="33.9258" cy="29" r="7" fill="#F7931B"/>
<circle cx="48.9258" cy="22" r="3" fill="#FECD64"/>
<circle cx="171.926" cy="184" r="5" fill="#F7931B"/>
<circle cx="183.926" cy="171" r="6" fill="#FECD64"/>
<circle cx="168.926" cy="168" r="3" fill="#FECD64"/>
</svg>
