<svg width="212" height="212" viewBox="0 0 212 212" fill="none" xmlns="http://www.w3.org/2000/svg">
<circle cx="107.926" cy="106" r="90" fill="#FFCBBA" fill-opacity="0.3"/>
<path fill-rule="evenodd" clip-rule="evenodd" d="M116 197.311C116 199.659 118.009 201.513 120.338 201.215C144.986 198.052 166.71 185.542 181.84 167.352C183.994 164.763 182.065 161 178.697 161C177.434 161 176.244 161.577 175.432 162.545C161.644 178.97 141.965 190.285 119.648 193.236C117.588 193.508 116 195.233 116 197.311Z" fill="#332D57"/>
<circle cx="107.926" cy="106" r="74" fill="#CD3D0D" stroke="#332D57" stroke-width="8"/>
<mask id="mask0_305_9087" style="mask-type:alpha" maskUnits="userSpaceOnUse" x="37" y="36" width="141" height="140">
<circle cx="107.926" cy="106" r="70" fill="#F05927"/>
</mask>
<g mask="url(#mask0_305_9087)">
<circle cx="91.9258" cy="106" r="70" fill="#F05927"/>
</g>
<path fill-rule="evenodd" clip-rule="evenodd" d="M83.9265 55.0475C83.9265 52.0876 80.9124 50.1005 78.3131 51.5164C65.0887 58.7195 54.7776 70.597 49.599 84.9296C48.6872 87.4531 50.6426 90.0003 53.3258 90.0003C55.116 90.0003 56.6828 88.8283 57.3078 87.1507C61.8111 75.0625 70.5205 65.0224 81.6566 58.8098C83.0294 58.044 83.9265 56.6195 83.9265 55.0475Z" fill="white"/>
<circle cx="48.9258" cy="99" r="4" fill="white"/>
<path fill-rule="evenodd" clip-rule="evenodd" d="M177.923 105.376C177.922 105.179 178.012 104.993 178.168 104.872C178.752 104.42 179.326 103.967 179.889 103.513C187.301 97.5255 192.493 91.5848 195.455 86.1576C198.39 80.7801 198.922 76.3591 197.964 72.7825C197.005 69.2059 194.335 65.6431 189.104 62.4537C183.825 59.2348 176.358 56.6858 166.945 55.2071C163.506 54.6668 159.858 54.2774 156.029 54.0455C155.208 53.9958 154.423 53.6668 153.802 53.128C151.085 50.7701 152.593 45.8315 156.184 46.0406C182.635 47.5804 201.809 56.2239 205.691 70.712C212.224 95.0932 172.977 126.793 118.03 141.516C75.0723 153.027 35.2367 150.753 16.7759 137.562C14.5359 135.962 14.9623 132.711 17.3464 131.335C18.8726 130.454 20.7734 130.64 22.2414 131.615C22.5814 131.841 22.9335 132.065 23.2981 132.287C28.5772 135.506 36.0435 138.055 45.4564 139.534C64.26 142.488 89.3066 140.931 115.959 133.789C140.617 127.182 161.694 117.123 176.436 106.184C176.598 106.064 176.792 106 176.993 106H177.302C177.647 106 177.927 105.72 177.923 105.376ZM13.5603 124.283C14.3575 123.823 14.6762 122.847 14.4379 121.958C13.4796 118.382 14.0113 113.961 16.9466 108.583C19.9091 103.156 25.1006 97.2152 32.513 91.2281C34.864 89.3292 37.4081 87.4502 40.1314 85.6038C40.8091 85.1444 41.3139 84.4717 41.5748 83.6956C42.7233 80.2791 38.9115 76.7771 35.9231 78.7922C14.6235 93.155 2.90667 109.833 6.71052 124.029C7.22661 125.955 9.46493 126.648 11.1918 125.651L13.5603 124.283Z" fill="#332D57"/>
<circle cx="90.9258" cy="140.806" r="14" fill="#FFD136"/>
<path fill-rule="evenodd" clip-rule="evenodd" d="M79.4088 129.307C78.0373 126.931 74.7861 126.447 73.2936 128.748C71.1631 132.034 69.9258 135.952 69.9258 140.159C69.9258 151.757 79.3278 161.159 90.9258 161.159C102.524 161.159 111.926 151.757 111.926 140.159C111.926 128.561 102.524 119.159 90.9258 119.159C90.4334 119.159 89.9451 119.176 89.4612 119.209C86.7603 119.396 85.596 122.416 86.9496 124.761L87.2322 125.25C87.9723 126.532 89.4457 127.159 90.9258 127.159C98.1055 127.159 103.926 132.979 103.926 140.159C103.926 147.339 98.1055 153.159 90.9258 153.159C83.7461 153.159 77.9258 147.339 77.9258 140.159C77.9258 138.082 78.4128 136.119 79.279 134.378C80.0764 132.774 80.3041 130.858 79.4088 129.307Z" fill="#332D57"/>
<mask id="path-11-inside-1_305_9087" fill="white">
<path d="M134.137 99.7726C134.816 101.875 137.079 103.045 139.121 102.2C144.812 99.8442 150.019 96.4572 154.48 92.2099C156.08 90.686 155.929 88.1431 154.282 86.6697C152.635 85.1963 150.117 85.3532 148.494 86.8525C145.01 90.0706 141.005 92.6754 136.65 94.5558C134.622 95.4319 133.457 97.6697 134.137 99.7726Z"/>
</mask>
<path d="M134.137 99.7726C134.816 101.875 137.079 103.045 139.121 102.2C144.812 99.8442 150.019 96.4572 154.48 92.2099C156.08 90.686 155.929 88.1431 154.282 86.6697C152.635 85.1963 150.117 85.3532 148.494 86.8525C145.01 90.0706 141.005 92.6754 136.65 94.5558C134.622 95.4319 133.457 97.6697 134.137 99.7726Z" stroke="#332D57" stroke-width="16" mask="url(#path-11-inside-1_305_9087)"/>
<circle cx="117" cy="31" r="9" fill="#FFD136" stroke="#332D57" stroke-width="8"/>
<circle cx="191" cy="149" r="11" fill="#F17940"/>
<circle cx="32" cy="21" r="5" transform="rotate(180 32 21)" fill="#F96E52"/>
<circle cx="20" cy="34" r="6" transform="rotate(180 20 34)" fill="#FECD64"/>
<circle cx="35" cy="37" r="3" transform="rotate(180 35 37)" fill="#FECD64"/>
<circle cx="127" cy="103" r="3" fill="#332D57"/>
<circle cx="72" cy="107" r="2" fill="#332D57"/>
</svg>
