<svg width="212" height="212" viewBox="0 0 212 212" fill="none" xmlns="http://www.w3.org/2000/svg">
<circle cx="105.367" cy="106" r="90" fill="#B341FF" fill-opacity="0.3"/>
<circle cx="105.367" cy="106" r="74" fill="#8C12DC" stroke="#332D57" stroke-width="8"/>
<mask id="mask0_305_9123" style="mask-type:alpha" maskUnits="userSpaceOnUse" x="35" y="36" width="141" height="140">
<circle cx="105.367" cy="106" r="70" fill="#B341FF"/>
</mask>
<g mask="url(#mask0_305_9123)">
<circle cx="89.3672" cy="106" r="70" fill="#B341FF"/>
</g>
<path fill-rule="evenodd" clip-rule="evenodd" d="M81.368 55.0475C81.368 52.0876 78.3538 50.1005 75.7545 51.5164C62.5301 58.7195 52.219 70.597 47.0404 84.9296C46.1286 87.4531 48.084 90.0003 50.7672 90.0003C52.5574 90.0003 54.1242 88.8283 54.7492 87.1507C59.2525 75.0625 67.9619 65.0224 79.098 58.8098C80.4708 58.044 81.368 56.6195 81.368 55.0475Z" fill="white"/>
<circle cx="46.3672" cy="99" r="4" fill="white"/>
<path fill-rule="evenodd" clip-rule="evenodd" d="M177.206 48.8115C177.06 42.6867 175.31 38.5922 172.691 35.974C170.073 33.3557 165.979 31.6057 159.854 31.459C153.673 31.311 145.932 32.8366 137.041 36.2625C134.724 37.1553 132.353 38.1677 129.939 39.2966C129.052 39.7113 128.043 39.7672 127.112 39.4631C123.812 38.3845 123.117 33.6651 126.258 32.1867C148.643 21.6518 168.211 20.1794 178.348 30.3171C196.197 48.1654 178.057 95.2423 137.833 135.466C97.6095 175.69 50.5326 193.829 32.6843 175.981C23.3532 166.65 23.8582 149.33 32.2127 129.177C33.5535 125.943 38.3383 126.479 39.5274 129.772C39.8541 130.677 39.837 131.67 39.4714 132.559C39.18 133.269 38.8993 133.974 38.6296 134.674C35.2038 143.565 33.6782 151.305 33.8262 157.487C33.9729 163.611 35.7229 167.706 38.3412 170.324C40.9594 172.943 45.0539 174.693 51.1787 174.839C57.36 174.987 65.1005 173.462 73.9917 170.036C91.753 163.192 112.666 149.321 132.177 129.809C151.688 110.298 165.559 89.3858 172.403 71.6245C175.829 62.7333 177.354 54.9928 177.206 48.8115Z" fill="#332D57"/>
<path fill-rule="evenodd" clip-rule="evenodd" d="M78.5186 145.526C77.6417 146.916 75.9909 147.624 74.3831 147.282C31.5164 138.162 1.24813 117.752 3.07876 96.8273C4.25375 83.3971 18.4149 72.4716 39.9893 65.9619C43.297 64.9639 45.9291 68.8644 44.2452 71.8813C43.7557 72.7581 42.9456 73.4235 41.9851 73.7165C40.8118 74.0743 39.6643 74.4456 38.5436 74.8299C29.5305 77.9207 22.6203 81.7275 17.9803 85.8141C13.3827 89.8634 11.371 93.8359 11.0483 97.5246C10.7256 101.213 12.0169 105.475 15.8415 110.261C19.7013 115.091 25.8455 120.04 34.185 124.649C45.2226 130.749 59.5128 135.926 75.895 139.424C78.6409 140.011 80.0166 143.151 78.5186 145.526ZM88.8279 144.177C89.6764 142.832 91.2353 142.114 92.8121 142.32C95.9563 142.731 99.1547 143.08 102.401 143.364C129.889 145.769 154.825 142.953 172.83 136.779C181.843 133.688 188.753 129.881 193.393 125.795C197.991 121.745 200.003 117.773 200.325 114.084C200.648 110.395 199.357 106.134 195.532 101.348C191.672 96.5176 185.528 91.5687 177.189 86.9597C176.258 86.4453 175.304 85.9375 174.328 85.4366C172.783 84.6442 171.603 83.2883 171 81.6603C169.935 78.7899 172.802 75.7742 175.556 77.1103C196.72 87.3756 209.504 100.967 208.295 114.781C206.095 139.927 158.372 156.292 101.704 151.334C98.2945 151.036 94.9307 150.667 91.6197 150.232C88.7473 149.855 87.2824 146.627 88.8279 144.177Z" fill="#332D57"/>
<circle cx="31.3672" cy="29" r="7" fill="#F7931B"/>
<circle cx="46.3672" cy="22" r="3" fill="#FECD64"/>
<circle cx="169.367" cy="184" r="5" fill="#F7931B"/>
<circle cx="181.367" cy="171" r="6" fill="#FECD64"/>
<circle cx="166.367" cy="168" r="3" fill="#FECD64"/>
<circle cx="101.367" cy="121" r="4" transform="rotate(-90 101.367 121)" fill="#332D57"/>
<circle cx="91.3672" cy="111" r="5" transform="rotate(-90 91.3672 111)" fill="#332D57"/>
<circle cx="88.3672" cy="125" r="2" transform="rotate(-90 88.3672 125)" fill="#332D57"/>
</svg>
