<svg width="212" height="212" viewBox="0 0 212 212" fill="none" xmlns="http://www.w3.org/2000/svg">
<circle cx="106" cy="106" r="90" fill="white" fill-opacity="0.3"/>
<mask id="path-2-inside-1_305_9197" fill="white">
<path d="M123.84 15.7477C124.269 13.5798 122.859 11.466 120.675 11.1282C98.246 7.65804 75.3054 12.2498 55.9402 24.0852C54.0545 25.2377 53.5669 27.7312 54.7968 29.5672C56.0268 31.4032 58.5081 31.8859 60.3981 30.7406C77.9939 20.0779 98.7777 15.9179 119.122 18.9866C121.307 19.3162 123.411 17.9157 123.84 15.7477Z"/>
</mask>
<path d="M123.84 15.7477C124.269 13.5798 122.859 11.466 120.675 11.1282C98.246 7.65804 75.3054 12.2498 55.9402 24.0852C54.0545 25.2377 53.5669 27.7312 54.7968 29.5672C56.0268 31.4032 58.5081 31.8859 60.3981 30.7406C77.9939 20.0779 98.7777 15.9179 119.122 18.9866C121.307 19.3162 123.411 17.9157 123.84 15.7477Z" stroke="#332D57" stroke-width="16" mask="url(#path-2-inside-1_305_9197)"/>
<mask id="path-3-inside-2_305_9197" fill="white">
<path d="M15.4823 77.583C13.3079 76.9004 10.983 78.1079 10.3916 80.3088C6.63976 94.2709 5.98722 108.903 8.501 123.174C11.0148 137.445 16.6276 150.973 24.9244 162.813C26.2322 164.68 28.8297 165.02 30.64 163.636C32.4502 162.251 32.787 159.666 31.4862 157.795C23.9892 147.01 18.9131 134.711 16.6288 121.742C14.3445 108.774 14.9126 95.4807 18.2732 82.7828C18.8563 80.5797 17.6566 78.2656 15.4823 77.583Z"/>
</mask>
<path d="M15.4823 77.583C13.3079 76.9004 10.983 78.1079 10.3916 80.3088C6.63976 94.2709 5.98722 108.903 8.501 123.174C11.0148 137.445 16.6276 150.973 24.9244 162.813C26.2322 164.68 28.8297 165.02 30.64 163.636C32.4502 162.251 32.787 159.666 31.4862 157.795C23.9892 147.01 18.9131 134.711 16.6288 121.742C14.3445 108.774 14.9126 95.4807 18.2732 82.7828C18.8563 80.5797 17.6566 78.2656 15.4823 77.583Z" stroke="#332D57" stroke-width="16" mask="url(#path-3-inside-2_305_9197)"/>
<mask id="path-4-inside-3_305_9197" fill="white">
<path d="M147.697 23.9933C148.699 22.0233 147.917 19.6063 145.907 18.6877C143.073 17.3925 140.178 16.2359 137.232 15.2223C135.142 14.5033 132.91 15.7166 132.279 17.8344C131.647 19.9523 132.856 22.172 134.943 22.8989C137.43 23.7651 139.877 24.7425 142.276 25.8282C144.29 26.7393 146.695 25.9632 147.697 23.9933Z"/>
</mask>
<path d="M147.697 23.9933C148.699 22.0233 147.917 19.6063 145.907 18.6877C143.073 17.3925 140.178 16.2359 137.232 15.2223C135.142 14.5033 132.91 15.7166 132.279 17.8344C131.647 19.9523 132.856 22.172 134.943 22.8989C137.43 23.7651 139.877 24.7425 142.276 25.8282C144.29 26.7393 146.695 25.9632 147.697 23.9933Z" stroke="#332D57" stroke-width="16" mask="url(#path-4-inside-3_305_9197)"/>
<circle cx="106" cy="106" r="74" fill="#1A8CD0"/>
<circle cx="43" cy="56" r="17" fill="#FAAF78" stroke="#332D57" stroke-width="8"/>
<path fill-rule="evenodd" clip-rule="evenodd" d="M176 106C176 144.66 144.66 176 106 176C67.3401 176 36 144.66 36 106C36 67.3401 67.3401 36 106 36C120.521 36 134.01 40.4217 145.193 47.9921C146.777 49.0644 148.894 48.9902 150.33 47.7266C152.232 46.0533 152.147 43.0581 150.058 41.6257C137.522 33.0295 122.348 28 106 28C62.9218 28 28 62.9218 28 106C28 149.078 62.9218 184 106 184C149.078 184 184 149.078 184 106C184 95.7066 182.006 85.8788 178.383 76.8819C177.379 74.3881 174.222 73.7512 172.204 75.5273C170.867 76.7036 170.462 78.6081 171.117 80.2638C174.268 88.2301 176 96.9128 176 106Z" fill="#332D57"/>
<mask id="mask0_305_9197" style="mask-type:alpha" maskUnits="userSpaceOnUse" x="36" y="36" width="140" height="140">
<circle cx="106" cy="106" r="70" fill="#53B4EF"/>
</mask>
<g mask="url(#mask0_305_9197)">
<circle cx="90" cy="106" r="70" fill="#53B4EF"/>
</g>
<path fill-rule="evenodd" clip-rule="evenodd" d="M82.368 55.0475C82.368 52.0876 79.3538 50.1005 76.7545 51.5164C63.5301 58.7195 53.219 70.597 48.0404 84.9296C47.1286 87.4531 49.084 90.0003 51.7672 90.0003C53.5574 90.0003 55.1242 88.8283 55.7492 87.1507C60.2525 75.0625 68.9619 65.0224 80.098 58.8098C81.4708 58.044 82.368 56.6195 82.368 55.0475Z" fill="white"/>
<mask id="path-11-inside-4_305_9197" fill="white">
<path d="M53.1678 120.293C51.014 120.788 49.6533 122.941 50.3184 125.049C52.5482 132.114 56.3211 138.597 61.3628 144.025C62.8666 145.645 65.4112 145.525 66.905 143.897C68.3989 142.268 68.2734 139.749 66.7945 138.107C62.9187 133.804 59.9742 128.745 58.1473 123.249C57.4501 121.152 55.3216 119.799 53.1678 120.293Z"/>
</mask>
<path d="M53.1678 120.293C51.014 120.788 49.6533 122.941 50.3184 125.049C52.5482 132.114 56.3211 138.597 61.3628 144.025C62.8666 145.645 65.4112 145.525 66.905 143.897C68.3989 142.268 68.2734 139.749 66.7945 138.107C62.9187 133.804 59.9742 128.745 58.1473 123.249C57.4501 121.152 55.3216 119.799 53.1678 120.293Z" stroke="#332D57" stroke-width="16" mask="url(#path-11-inside-4_305_9197)"/>
<mask id="path-12-inside-5_305_9197" fill="white">
<path d="M126.526 106.526C128.089 108.089 130.636 108.098 132.069 106.416C136.062 101.726 139.154 96.339 141.19 90.5259C141.92 88.4403 140.627 86.2455 138.49 85.6842C136.353 85.1229 134.183 86.4095 133.421 88.4837C131.785 92.9359 129.407 97.0792 126.387 100.737C124.98 102.441 124.963 104.963 126.526 106.526Z"/>
</mask>
<path d="M126.526 106.526C128.089 108.089 130.636 108.098 132.069 106.416C136.062 101.726 139.154 96.339 141.19 90.5259C141.92 88.4403 140.627 86.2455 138.49 85.6842C136.353 85.1229 134.183 86.4095 133.421 88.4837C131.785 92.9359 129.407 97.0792 126.387 100.737C124.98 102.441 124.963 104.963 126.526 106.526Z" stroke="#332D57" stroke-width="16" mask="url(#path-12-inside-5_305_9197)"/>
<circle cx="47.3672" cy="99" r="4" fill="white"/>
<circle cx="52" cy="114" r="3" fill="#332D57"/>
<circle cx="121" cy="110" r="3" fill="#332D57"/>
<circle cx="71" cy="109" r="5" fill="#332D57"/>
<circle cx="170.367" cy="184" r="5" fill="#FAAF78"/>
<circle cx="190" cy="168" r="6" fill="#332D57"/>
<circle cx="158" cy="53" r="11" fill="#B8DEFF" stroke="#332D57" stroke-width="8"/>
<circle cx="71" cy="172" r="8" fill="#B8DEFF" stroke="#332D57" stroke-width="8"/>
</svg>
