<svg width="877" height="546" viewBox="0 0 877 546" fill="none" xmlns="http://www.w3.org/2000/svg">
<ellipse cx="544.015" cy="366.24" rx="1.51967" ry="1.13336" transform="rotate(90 544.015 366.24)" fill="white" fill-opacity="0.5"/>
<path d="M646.017 227.951L639.099 233.872L634.683 243.148L630.268 233.872L623.35 227.951L630.268 222.03L634.683 212.754L639.099 222.03L646.017 227.951Z" fill="url(#paint0_radial_318_3875)"/>
<path d="M552.938 432.999L549.431 436.001L547.192 440.704L544.953 436.001L541.445 432.999L544.953 429.997L547.192 425.294L549.431 429.997L552.938 432.999Z" fill="url(#paint1_radial_318_3875)"/>
<path d="M221.007 37.9917L211.322 46.2809L205.14 59.267L198.958 46.2809L189.273 37.9917L198.958 29.7024L205.14 16.7163L211.322 29.7024L221.007 37.9917Z" fill="url(#paint2_radial_318_3875)"/>
<path d="M21.5342 307.733L14.9622 313.358L10.7672 322.17L6.57226 313.358L0.000286102 307.733L6.57226 302.108L10.7672 293.296L14.9622 302.108L21.5342 307.733Z" fill="url(#paint3_radial_318_3875)"/>
<path d="M719.686 14.4368L713.114 20.0617L708.919 28.8737L704.724 20.0617L698.152 14.4368L704.724 8.81202L708.919 0L713.114 8.81202L719.686 14.4368Z" fill="url(#paint4_radial_318_3875)"/>
<path d="M106.537 468.818L99.9646 474.443L95.7697 483.255L91.5747 474.443L85.0027 468.818L91.5747 463.193L95.7697 454.381L99.9646 463.193L106.537 468.818Z" fill="url(#paint5_radial_318_3875)"/>
<circle cx="676.093" cy="235.006" r="1" transform="rotate(90 676.093 235.006)" fill="white" fill-opacity="0.5"/>
<circle cx="747.593" cy="262.506" r="2.5" transform="rotate(90 747.593 262.506)" fill="white" fill-opacity="0.5"/>
<circle cx="696.593" cy="126.506" r="2.5" transform="rotate(90 696.593 126.506)" fill="white" fill-opacity="0.5"/>
<circle cx="248.593" cy="84.5059" r="2.5" transform="rotate(90 248.593 84.5059)" fill="white" fill-opacity="0.5"/>
<ellipse cx="170.572" cy="444.503" rx="3.79917" ry="2.83341" transform="rotate(90 170.572 444.503)" fill="white" fill-opacity="0.5"/>
<ellipse cx="574.049" cy="341.165" rx="3.79917" ry="2.83341" transform="rotate(90 574.049 341.165)" fill="white" fill-opacity="0.5"/>
<ellipse cx="643.184" cy="87.3812" rx="3.79917" ry="2.83341" transform="rotate(90 643.184 87.3812)" fill="white" fill-opacity="0.5"/>
<ellipse cx="727.053" cy="218.072" rx="3.79917" ry="2.83341" transform="rotate(90 727.053 218.072)" fill="white" fill-opacity="0.5"/>
<ellipse cx="167.171" cy="90.4208" rx="3.79917" ry="2.83341" transform="rotate(90 167.171 90.4208)" fill="white" fill-opacity="0.5"/>
<ellipse cx="82.1695" cy="119.294" rx="3.79917" ry="2.83341" transform="rotate(90 82.1695 119.294)" fill="white" fill-opacity="0.5"/>
<ellipse cx="171.705" cy="336.607" rx="3.79917" ry="2.83341" transform="rotate(90 171.705 336.607)" fill="white" fill-opacity="0.5"/>
<ellipse cx="465.246" cy="84.3421" rx="3.79917" ry="2.83341" transform="rotate(90 465.246 84.3421)" fill="white" fill-opacity="0.5"/>
<ellipse cx="673.218" cy="281.139" rx="1.51967" ry="1.13336" transform="rotate(90 673.218 281.139)" fill="white" fill-opacity="0.5"/>
<ellipse cx="24.3683" cy="32.6737" rx="3.79917" ry="2.83341" transform="rotate(90 24.3683 32.6737)" fill="white" fill-opacity="0.5"/>
<ellipse cx="463.546" cy="107.897" rx="1.51967" ry="1.13336" transform="rotate(90 463.546 107.897)" fill="white" fill-opacity="0.5"/>
<ellipse cx="740.087" cy="455.901" rx="1.51967" ry="1.13336" transform="rotate(90 740.087 455.901)" fill="white" fill-opacity="0.5"/>
<ellipse cx="520.214" cy="490.853" rx="1.51967" ry="1.13336" transform="rotate(90 520.214 490.853)" fill="white" fill-opacity="0.5"/>
<ellipse cx="634.684" cy="57.7477" rx="1.51967" ry="1.13336" transform="rotate(90 634.684 57.7477)" fill="white" fill-opacity="0.5"/>
<ellipse cx="575.749" cy="227.951" rx="1.51967" ry="1.13336" transform="rotate(90 575.749 227.951)" fill="white" fill-opacity="0.5"/>
<ellipse cx="451.079" cy="484.775" rx="1.51967" ry="1.13336" transform="rotate(90 451.079 484.775)" fill="white" fill-opacity="0.5"/>
<ellipse cx="454.479" cy="54.7086" rx="1.51967" ry="1.13336" transform="rotate(90 454.479 54.7086)" fill="white" fill-opacity="0.5"/>
<ellipse cx="222.14" cy="97.2589" rx="1.51967" ry="1.13336" transform="rotate(90 222.14 97.2589)" fill="white" fill-opacity="0.5"/>
<ellipse cx="171.138" cy="123.093" rx="1.51967" ry="1.13336" transform="rotate(90 171.138 123.093)" fill="white" fill-opacity="0.5"/>
<ellipse cx="374.01" cy="16.7164" rx="1.51967" ry="1.13336" transform="rotate(90 374.01 16.7164)" fill="white" fill-opacity="0.5"/>
<ellipse cx="616.55" cy="411.83" rx="1.51967" ry="1.13336" transform="rotate(90 616.55 411.83)" fill="white" fill-opacity="0.5"/>
<ellipse cx="647.15" cy="493.892" rx="1.51967" ry="1.13336" transform="rotate(90 647.15 493.892)" fill="white" fill-opacity="0.5"/>
<ellipse cx="230.073" cy="544.041" rx="1.51967" ry="1.13336" transform="rotate(90 230.073 544.041)" fill="white" fill-opacity="0.5"/>
<ellipse cx="115.604" cy="176.282" rx="1.51967" ry="1.13336" transform="rotate(90 115.604 176.282)" fill="white" fill-opacity="0.5"/>
<ellipse cx="496.414" cy="3.03969" rx="1.51967" ry="1.13336" transform="rotate(90 496.414 3.03969)" fill="white" fill-opacity="0.5"/>
<ellipse cx="238.007" cy="56.2277" rx="1.51967" ry="1.13336" transform="rotate(90 238.007 56.2277)" fill="white" fill-opacity="0.5"/>
<ellipse cx="874.956" cy="221.872" rx="1.51967" ry="1.13336" transform="rotate(90 874.956 221.872)" fill="white" fill-opacity="0.5"/>
<ellipse cx="205.14" cy="437.665" rx="1.51967" ry="1.13336" transform="rotate(90 205.14 437.665)" fill="white" fill-opacity="0.5"/>
<ellipse cx="131.47" cy="278.099" rx="1.51967" ry="1.13336" transform="rotate(90 131.47 278.099)" fill="white" fill-opacity="0.5"/>
<path d="M213.073 472.617C212.447 472.617 211.939 471.937 211.939 471.097C211.939 470.258 212.447 469.578 213.073 469.578C213.699 469.578 214.206 470.258 214.206 471.097C214.206 471.937 213.699 472.617 213.073 472.617Z" fill="white" fill-opacity="0.5"/>
<ellipse cx="175.672" cy="232.51" rx="1.51967" ry="1.13336" transform="rotate(90 175.672 232.51)" fill="white" fill-opacity="0.5"/>
<ellipse cx="367.21" cy="86.6217" rx="1.51967" ry="1.13336" transform="rotate(90 367.21 86.6217)" fill="white" fill-opacity="0.5"/>
<ellipse cx="517.948" cy="139.81" rx="1.51967" ry="1.13336" transform="rotate(90 517.948 139.81)" fill="white" fill-opacity="0.5"/>
<defs>
<radialGradient id="paint0_radial_318_3875" cx="0" cy="0" r="1" gradientUnits="userSpaceOnUse" gradientTransform="translate(634.683 227.951) rotate(146.161) scale(13.645 15.7781)">
<stop stop-color="white" stop-opacity="0.51"/>
<stop offset="1" stop-color="white" stop-opacity="0"/>
</radialGradient>
<radialGradient id="paint1_radial_318_3875" cx="0" cy="0" r="1" gradientUnits="userSpaceOnUse" gradientTransform="translate(547.192 432.999) rotate(146.161) scale(6.91844 7.99998)">
<stop stop-color="white"/>
<stop offset="1" stop-color="white"/>
</radialGradient>
<radialGradient id="paint2_radial_318_3875" cx="0" cy="0" r="1" gradientUnits="userSpaceOnUse" gradientTransform="translate(205.14 37.9917) rotate(146.161) scale(19.103 22.0893)">
<stop stop-color="white" stop-opacity="0.51"/>
<stop offset="1" stop-color="white" stop-opacity="0"/>
</radialGradient>
<radialGradient id="paint3_radial_318_3875" cx="0" cy="0" r="1" gradientUnits="userSpaceOnUse" gradientTransform="translate(10.7672 307.733) rotate(146.161) scale(12.9627 14.9892)">
<stop stop-color="white" stop-opacity="0.51"/>
<stop offset="1" stop-color="white" stop-opacity="0"/>
</radialGradient>
<radialGradient id="paint4_radial_318_3875" cx="0" cy="0" r="1" gradientUnits="userSpaceOnUse" gradientTransform="translate(708.919 14.4368) rotate(146.161) scale(12.9627 14.9892)">
<stop stop-color="white" stop-opacity="0.51"/>
<stop offset="1" stop-color="white" stop-opacity="0"/>
</radialGradient>
<radialGradient id="paint5_radial_318_3875" cx="0" cy="0" r="1" gradientUnits="userSpaceOnUse" gradientTransform="translate(95.7697 468.818) rotate(146.161) scale(12.9627 14.9892)">
<stop stop-color="white" stop-opacity="0.51"/>
<stop offset="1" stop-color="white" stop-opacity="0"/>
</radialGradient>
</defs>
</svg>
